<?xml version="1.0" encoding="utf-8"?>
<svg viewBox="0 0 1000 1000" style="enable-background:new 0 0 1000 1000;" xmlns="http://www.w3.org/2000/svg">
  <defs>
    <style type="text/css">
	.st0{fill:none;}
	.st1{fill:url(#SVGID_1_);}
	.st2{fill:#B198F8;}
	.st3{fill:#9B87D9;}
	.st4{fill:#FFFFFF;}
	.st5{fill:#E5E5E5;}
</style>
  </defs>
  <path class="st0" d="M818.4,499.5c-5.2,1.6-10.2,3.9-14.7,6.9C809.6,503.3,814.6,501,818.4,499.5z" transform="matrix(0.9999999999999999, 0, 0, 0.9999999999999999, 0, 0)"/>
  <circle class="st0" cx="822.5" cy="364.4" r="25.7" transform="matrix(0.9999999999999999, 0, 0, 0.9999999999999999, 0, 0)"/>
  <path class="st2" d="M818.4,499.5c0.7-0.2,1.4-0.4,2.1-0.6c1.8-0.4,3.6-0.7,5.5-0.8l0.2-1.5C826.2,496.6,823.3,497.4,818.4,499.5z" transform="matrix(0.9999999999999999, 0, 0, 0.9999999999999999, 0, 0)"/>
  <path class="st4" d="M 993.347 468.487 C 1004.847 376.287 976.047 279.687 915.947 208.787 C 855.847 137.887 765.447 93.587 672.547 89.487 C 630.647 87.687 587.247 94.187 551.447 115.887 C 515.647 137.587 488.547 176.487 488.447 218.387 C 488.347 253.387 506.347 286.187 529.447 312.487 C 542.347 327.087 556.847 340.087 572.747 351.287 C 604.947 379.387 649.847 396.987 679.147 396.987 C 700.047 396.987 718.947 386.987 733.047 372.087 C 740.147 364.587 746.147 356.087 751.047 346.987 C 756.847 336.287 758.847 323.687 764.547 312.787 C 765.747 310.487 768.847 306.987 771.147 310.387 C 775.747 316.987 771.547 330.287 770.247 337.487 C 764.447 368.187 749.447 396.687 722.347 413.887 C 690.247 434.687 647.347 427.587 612.247 412.287 C 555.047 387.187 508.047 343.287 478.947 287.987 C 466.447 263.987 455.347 235.887 430.547 224.987 C 416.447 218.787 400.447 219.587 385.247 220.887 C 265.847 231.487 110.347 274.087 69.147 402.487 C 57.847 437.587 56.547 474.687 55.647 511.187 C 54.747 547.687 54.147 584.587 43.747 619.887 C 41.047 628.987 37.747 637.787 33.747 646.387 C 29.647 655.287 24.247 662.987 18.947 671.087 C 15.947 675.687 13.047 681.087 13.047 686.787 C 13.047 687.787 13.247 688.787 13.547 689.687 C 70.647 622.187 101.447 539.887 101.447 539.887 L 101.347 545.387 C 101.847 543.587 102.447 541.687 102.947 539.887 C 108.647 551.187 114.047 562.587 119.647 573.987 C 153.547 647.787 159.047 733.387 166.347 813.287 C 167.447 825.187 169.047 837.487 173.747 848.587 C 178.347 859.487 184.747 868.187 197.147 869.787 C 208.047 871.187 220.547 870.887 231.447 870.787 C 247.147 870.787 263.147 870.587 279.047 870.187 C 304.247 737.687 369.747 710.487 382.047 706.587 C 408.547 696.987 439.247 699.187 463.747 716.787 C 492.947 737.687 497.347 772.587 504.547 804.987 C 507.847 818.287 510.047 831.887 513.547 845.087 C 516.947 857.987 524.347 866.487 537.247 870.487 C 543.747 872.487 557.747 871.887 564.447 871.687 C 571.647 871.587 578.747 871.487 585.947 871.387 C 592.347 871.387 598.847 871.287 605.247 871.287 C 629.547 613.287 756.747 521.887 808.947 494.887 C 813.547 491.887 818.447 489.587 823.647 487.987 C 828.647 485.987 831.447 485.087 831.447 485.087 L 831.247 486.587 C 840.947 485.887 851.147 489.087 856.747 496.987 C 862.047 504.487 862.147 514.287 861.847 523.487 C 859.847 577.587 847.647 631.087 848.947 685.187 C 850.247 739.287 868.147 796.987 912.347 828.087 C 927.447 838.687 952.647 843.287 961.047 826.887 C 966.647 815.887 960.647 802.987 955.847 791.587 C 934.647 740.787 940.347 682.587 953.447 628.987 C 966.547 575.287 986.547 523.287 993.347 468.487 Z M 853.247 355.887 C 851.747 369.987 839.047 380.187 824.947 378.587 C 810.847 376.987 800.647 364.387 802.247 350.287 C 803.747 336.187 816.447 325.987 830.547 327.587 C 844.647 329.087 854.747 341.787 853.247 355.887 C 853.247 355.787 853.247 355.887 853.247 355.887 Z" style="fill: rgb(0, 0, 0);" transform="matrix(0.9999999999999999, 0, 0, 0.9999999999999999, 0, 0)"/>
</svg>
